<?xml version="1.0" standalone="no"?>
<!DOCTYPE svg PUBLIC "-//W3C//DTD SVG 20010904//EN"
 "http://www.w3.org/TR/2001/REC-SVG-20010904/DTD/svg10.dtd">
<svg version="1.0" xmlns="http://www.w3.org/2000/svg"
 width="204.000000pt" height="203.000000pt" viewBox="0 0 204.000000 203.000000"
 preserveAspectRatio="xMidYMid meet">

<g transform="translate(0.000000,203.000000) scale(0.100000,-0.100000)"
fill="#000000" stroke="none">
<path d="M865 2020 c-321 -50 -608 -259 -755 -550 -190 -377 -124 -836 165
-1148 129 -140 303 -242 501 -293 125 -32 349 -33 474 -2 195 49 342 133 485
277 138 138 220 283 267 472 32 127 32 351 0 478 -91 364 -373 651 -730 742
-109 28 -304 40 -407 24z m408 -38 c166 -45 323 -137 448 -261 341 -341 390
-869 119 -1272 -56 -82 -177 -203 -259 -259 -85 -57 -213 -116 -308 -142 -99
-26 -326 -36 -428 -18 -377 67 -680 341 -791 715 -36 121 -45 331 -20 454 82
406 384 712 786 797 99 20 353 13 453 -14z"/>
<path d="M977 1943 c-13 -13 -7 -33 19 -57 29 -26 24 -51 -7 -43 -11 3 -19 1
-19 -5 0 -5 12 -8 27 -6 38 4 41 33 8 68 -27 28 -22 46 11 33 12 -4 15 -3 10
5 -8 13 -39 16 -49 5z"/>
<path d="M883 1923 c-4 -11 3 -23 20 -37 15 -12 27 -29 27 -39 0 -20 -4 -21
-31 -7 -12 7 -19 7 -19 1 0 -16 40 -24 55 -11 23 19 18 36 -15 60 -29 21 -32
47 -4 36 8 -3 14 -1 14 4 0 17 -40 11 -47 -7z"/>
<path d="M1061 1883 c1 -65 5 -61 12 10 2 26 1 47 -4 47 -5 0 -9 -26 -8 -57z"/>
<path d="M1120 1920 c-40 -40 -16 -103 38 -103 42 0 62 19 62 59 0 56 -61 83
-100 44z m68 -6 c24 -17 29 -53 10 -72 -19 -19 -66 -15 -78 7 -14 28 -13 38
10 61 24 24 29 24 58 4z"/>
<path d="M807 1923 c-16 -4 -18 -11 -12 -50 9 -62 15 -75 32 -69 8 3 21 6 29
6 8 0 14 4 14 9 0 5 -9 7 -21 4 -12 -4 -25 0 -30 8 -13 22 -11 27 19 38 l27
10 -30 -2 c-40 -3 -46 25 -8 40 28 11 14 15 -20 6z"/>
<path d="M721 1899 c-14 -5 -21 -15 -18 -23 3 -8 11 -32 18 -55 7 -23 16 -41
20 -41 5 0 4 12 -2 26 -5 15 -8 28 -7 29 2 1 12 7 23 14 18 11 17 12 -7 6 -23
-4 -28 -2 -28 15 0 11 6 20 14 20 8 0 18 5 21 10 7 12 -2 12 -34 -1z"/>
<path d="M1257 1866 c-22 -64 -21 -83 2 -31 l17 39 20 -47 c10 -26 22 -47 25
-47 3 0 11 18 18 41 7 23 15 48 18 57 4 9 2 13 -5 9 -6 -4 -13 -21 -17 -37 -4
-17 -10 -30 -14 -30 -4 0 -16 21 -27 48 l-20 47 -17 -49z"/>
<path d="M592 1844 c-24 -16 -29 -53 -12 -85 14 -25 71 -26 93 -1 35 38 7 102
-43 102 -9 0 -26 -7 -38 -16z m68 -12 c30 -24 21 -69 -15 -78 -35 -9 -53 1
-61 32 -6 21 -2 31 16 46 12 10 26 18 30 18 4 0 18 -8 30 -18z"/>
<path d="M1386 1804 c-46 -37 -57 -58 -17 -32 26 16 52 2 62 -33 5 -15 7 -2 8
39 1 34 -1 62 -2 62 -2 0 -25 -16 -51 -36z m41 -21 c-3 -3 -11 -2 -17 2 -8 5
-7 11 2 22 12 15 13 14 16 -1 2 -10 1 -20 -1 -23z"/>
<path d="M1485 1754 c-21 -36 -24 -48 -15 -60 7 -8 20 -14 29 -14 14 1 14 2
-1 11 -24 14 -23 28 7 72 14 20 21 37 16 37 -5 0 -21 -21 -36 -46z"/>
<path d="M476 1775 c-19 -14 -18 -16 9 -55 30 -44 45 -57 45 -41 0 5 -4 13
-10 16 -22 14 -8 23 21 13 16 -6 33 -8 36 -5 3 3 -6 9 -20 12 -20 5 -25 12
-23 38 1 25 -3 33 -19 34 -11 2 -29 -4 -39 -12z m50 -6 c10 -17 -23 -46 -38
-31 -8 8 -8 15 2 27 15 18 26 19 36 4z"/>
<path d="M911 1780 c-293 -41 -545 -253 -631 -535 -129 -422 115 -863 542
-977 112 -29 279 -29 391 1 265 70 472 277 548 547 31 107 31 284 1 395 -89
328 -363 551 -702 572 -47 3 -114 1 -149 -3z m232 -27 c46 -6 48 0 -37 -148
-188 -326 -384 -666 -503 -872 l-134 -232 -31 35 c-21 23 -29 41 -25 57 4 20
33 130 131 497 19 69 62 231 97 360 34 129 66 240 71 246 13 18 137 54 214 64
66 7 134 5 217 -7z m348 -159 c38 -31 89 -83 113 -115 61 -81 110 -169 100
-179 -5 -4 -83 -65 -174 -134 -91 -70 -190 -146 -220 -169 -54 -42 -251 -193
-474 -362 -65 -49 -154 -118 -198 -152 l-80 -62 -29 22 c-15 12 -28 25 -28 29
-1 7 63 90 158 208 28 36 347 444 611 783 80 102 147 186 149 186 2 1 35 -24
72 -55z m-1042 -354 c-22 -168 -46 -361 -54 -430 -23 -189 -21 -186 -57 -117
-65 130 -88 344 -53 496 19 80 80 211 127 272 45 58 71 89 74 86 1 -1 -15
-139 -37 -307z m1317 -262 c-12 -139 -45 -247 -105 -344 -30 -50 -33 -51 -113
-73 -371 -99 -841 -221 -853 -221 -8 0 -36 13 -60 28 l-46 29 358 203 c197
112 421 239 498 283 77 44 165 94 195 110 30 17 69 39 85 49 17 10 34 18 39
18 4 0 5 -37 2 -82z m-376 -613 c0 -7 -80 -42 -150 -65 -118 -40 -298 -45
-415 -11 -30 8 -30 8 15 15 59 10 498 63 528 65 12 0 22 -1 22 -4z"/>
<path d="M400 1712 c-27 -22 -20 -40 31 -87 l33 -30 -18 28 c-16 26 -16 30 -2
46 21 23 20 38 -3 51 -15 7 -24 5 -41 -8z m45 -11 c3 -5 -2 -17 -11 -26 -19
-19 -40 -6 -31 19 7 17 32 21 42 7z"/>
<path d="M1698 1578 c-21 -16 -38 -38 -38 -47 0 -21 19 -41 39 -41 18 0 81 48
81 62 0 5 -16 -4 -35 -21 -41 -36 -48 -37 -66 -15 -12 14 -8 21 26 50 50 41
43 53 -7 12z"/>
<path d="M1752 1474 c-24 -14 -41 -28 -38 -31 3 -3 21 5 40 17 41 25 41 26 21
-30 -8 -23 -15 -46 -15 -51 0 -9 87 38 95 52 9 14 0 11 -39 -12 -41 -24 -41
-25 -21 31 8 23 15 44 15 46 0 9 -18 2 -58 -22z"/>
<path d="M1810 1365 c-25 -13 -38 -24 -30 -24 8 0 35 11 60 24 25 13 38 24 30
24 -8 0 -35 -11 -60 -24z"/>
<path d="M150 1353 c0 -6 5 -15 10 -18 17 -11 11 -35 -9 -35 -11 0 -23 -4 -26
-10 -8 -12 -8 -12 33 -1 21 7 43 6 59 0 14 -5 28 -7 31 -5 3 3 -8 10 -24 16
-16 6 -39 23 -51 38 -12 15 -22 22 -23 15z"/>
<path d="M1841 1312 c-43 -36 -44 -37 -20 -43 13 -4 42 -7 64 -7 l40 0 -49 11
-49 10 34 28 c19 15 32 30 29 33 -3 2 -25 -12 -49 -32z"/>
<path d="M215 1219 c-7 -22 -23 -22 -95 -3 -17 4 -22 3 -15 -3 10 -10 105 -37
110 -31 2 2 6 15 10 31 8 32 -1 37 -10 6z"/>
<path d="M1862 1210 c-44 -10 -46 -14 -33 -47 l11 -28 -3 27 c-3 17 1 29 10
32 25 10 33 7 33 -13 0 -11 5 -23 11 -26 6 -4 9 4 7 22 -4 34 25 40 30 6 2
-13 8 -23 14 -23 5 0 7 7 4 16 -3 9 -6 22 -6 30 0 15 -25 17 -78 4z"/>
<path d="M90 1140 c0 -31 6 -34 77 -43 34 -4 44 7 42 46 0 19 -2 18 -11 -5
-14 -41 -48 -38 -49 5 -2 30 -2 30 -6 5 -3 -20 -10 -28 -25 -28 -16 0 -19 5
-16 25 3 14 1 25 -3 25 -5 0 -9 -13 -9 -30z"/>
<path d="M1840 1109 c0 -6 9 -9 20 -6 11 3 20 2 20 -2 0 -5 -9 -16 -20 -26
-11 -10 -20 -23 -20 -28 0 -6 11 0 24 12 22 21 25 21 34 6 15 -28 47 -14 50
23 l3 32 -55 0 c-35 0 -56 -4 -56 -11z m100 -18 c0 -25 -20 -38 -31 -20 -15
23 -10 39 11 39 13 0 20 -7 20 -19z"/>
<path d="M118 1047 c23 -11 42 -24 42 -27 0 -4 -18 -12 -40 -19 -22 -6 -40
-16 -40 -21 0 -5 23 -1 50 10 28 11 53 20 55 20 3 0 5 4 5 8 0 10 -85 52 -103
51 -6 0 7 -10 31 -22z"/>
<path d="M1842 993 c4 -38 33 -41 68 -8 30 28 53 18 28 -12 -11 -14 -11 -16 2
-11 21 7 25 47 5 54 -10 4 -27 -4 -45 -21 -28 -27 -50 -27 -50 0 0 7 6 16 13
18 7 3 4 6 -6 6 -14 1 -18 -5 -15 -26z"/>
<path d="M112 934 c-46 -32 -17 -114 40 -114 26 0 58 36 58 65 0 29 -32 65
-58 65 -10 0 -28 -7 -40 -16z m79 -25 c17 -33 -3 -69 -39 -69 -33 0 -52 16
-52 45 0 29 19 45 52 45 18 0 31 -7 39 -21z"/>
<path d="M1840 929 c0 -5 26 -9 58 -8 64 1 60 5 -10 12 -27 2 -48 1 -48 -4z"/>
<path d="M1940 881 c0 -10 -14 -12 -57 -7 -39 4 -51 3 -38 -3 11 -5 32 -10 47
-10 15 -1 31 -9 37 -18 8 -15 10 -14 16 10 4 15 5 31 1 34 -3 4 -6 1 -6 -6z"/>
<path d="M214 798 c6 -24 3 -27 -44 -39 -28 -7 -50 -16 -50 -20 0 -5 21 -2 48
6 26 8 50 15 55 15 11 0 8 33 -4 50 -8 12 -9 9 -5 -12z"/>
<path d="M1837 784 c15 -7 37 -22 47 -33 11 -12 24 -21 29 -21 6 0 3 8 -6 18
-22 24 -21 31 5 41 15 5 2 8 -41 7 -58 -1 -61 -2 -34 -12z"/>
<path d="M251 547 c-24 -29 17 -70 46 -46 8 7 13 22 11 33 -4 25 -40 33 -57
13z"/>
<path d="M1720 546 c-27 -33 18 -72 48 -42 13 13 14 20 6 34 -15 23 -38 26
-54 8z"/>
<path d="M469 357 c-36 -46 -46 -66 -19 -40 21 19 25 20 45 7 18 -12 24 -12
40 0 18 13 18 15 2 40 -23 34 -37 33 -68 -7z m61 -13 c0 -18 -24 -18 -39 -1
-8 10 -7 17 1 25 14 14 38 -2 38 -24z"/>
<path d="M1575 344 c20 -20 41 -47 46 -61 5 -14 12 -23 15 -20 9 8 -25 67 -53
93 -41 38 -47 28 -8 -12z"/>
<path d="M551 305 c-11 -20 -21 -47 -21 -60 0 -30 35 -43 58 -22 23 21 55 77
45 77 -5 0 -17 -15 -28 -32 -22 -39 -33 -48 -52 -41 -19 7 -16 30 8 70 12 19
19 36 16 39 -2 3 -14 -11 -26 -31z"/>
<path d="M1486 278 c4 -29 11 -57 17 -63 6 -7 8 -3 4 13 -7 30 27 56 55 41 11
-6 22 -9 24 -6 5 4 -90 67 -101 67 -3 0 -3 -24 1 -52z m38 13 c3 -5 -1 -11 -9
-15 -9 -3 -15 0 -15 9 0 16 16 20 24 6z"/>
<path d="M1410 295 c0 -13 52 -107 56 -102 6 5 -43 107 -51 107 -3 0 -5 -2 -5
-5z"/>
<path d="M643 246 c-29 -59 -29 -84 -1 -31 l22 40 16 -55 16 -55 27 53 c15 28
23 52 18 52 -5 0 -14 -13 -21 -30 -7 -16 -15 -30 -19 -30 -3 0 -13 23 -21 51
l-15 52 -22 -47z"/>
<path d="M1329 257 l-27 -12 21 -53 c17 -45 23 -52 41 -46 55 17 73 67 36 104
-23 23 -34 24 -71 7z m73 -32 c9 -21 8 -28 -7 -45 -26 -29 -43 -25 -60 16 -18
44 -13 54 26 54 22 0 32 -7 41 -25z"/>
<path d="M788 193 c-12 -42 -17 -48 -39 -46 -23 3 -23 2 -5 -12 13 -10 23 -12
31 -5 15 12 40 98 32 106 -3 3 -12 -16 -19 -43z"/>
<path d="M1270 234 c0 -5 4 -24 9 -42 5 -17 7 -32 5 -32 -3 0 -26 14 -51 32
-30 20 -44 26 -40 15 3 -8 9 -32 13 -51 3 -20 10 -39 15 -42 11 -6 11 -6 0 34
-11 39 -7 39 41 7 20 -14 39 -25 42 -25 5 0 -21 100 -28 108 -3 3 -6 1 -6 -4z"/>
<path d="M848 167 c-21 -28 -35 -53 -32 -56 3 -3 10 2 15 12 16 27 58 22 70
-9 17 -46 19 -21 3 41 -9 33 -17 61 -17 62 -1 0 -19 -22 -39 -50z m42 -2 c0
-8 -7 -15 -15 -15 -16 0 -20 12 -8 23 11 12 23 8 23 -8z"/>
<path d="M1117 213 c-9 -8 -9 -100 -1 -130 4 -13 10 -23 15 -23 4 0 3 14 -3
31 -6 17 -8 53 -6 80 5 52 5 53 -5 42z"/>
<path d="M956 188 c-3 -13 -6 -40 -6 -61 0 -37 1 -38 33 -35 31 3 32 4 32 51
1 36 -4 51 -16 58 -27 14 -36 11 -43 -13z m44 -13 c0 -8 -7 -15 -15 -15 -8 0
-15 7 -15 15 0 8 7 15 15 15 8 0 15 -7 15 -15z m5 -55 c0 -8 -10 -16 -22 -18
-18 -3 -23 2 -23 18 0 16 5 21 23 18 12 -2 22 -10 22 -18z"/>
<path d="M1162 185 c0 -16 4 -43 8 -60 l8 -30 0 35 c0 19 -4 46 -8 60 -8 24
-8 24 -8 -5z"/>
</g>
</svg> 